<svg id="Layer_1" data-name="Layer 1" xmlns="http://www.w3.org/2000/svg" viewBox="0 0 154.18 154.21"><defs><style>.cls-1{fill:#fefefe;}</style></defs><title>oslologo</title><path d="M230.94,324.15c-.05-2,.41-4.34,5-4.36.33,0,.48,0,.81,0,6.3.16-1.7,0,0,0,28.46.06,62.22.25,90.68.25,15,0,30,0,44.94,0,1.54,0,1.53,0,4.25.17.34,0,2.06.11,2.39.11,3.43.18,4.11.28,4.39,3.66,0,.33-.28,2.1-.28,2.44,0,1.9-.11,2.72-.12,4.27-.07,10.64,0,21.28,0,31.93q0,30.67,0,61.35c0,1.71,0,2.32,0,5.29,0,.67-.34,2.55-.34,3.22-3.88,4.84-8,4.72-13.95,4.61-2.66-.05-5.32,0-8,0-1.45,0-2.89.19-4.48.3-.33,2.4-.84,4.47.59,6.69,3.44,0,6.94.26,10.39-.05,7.26-.67,12.8,1.9,16.7,8.05v12c-.29.36-.06.7-.34,1.06a2.27,2.27,0,0,0-.29.9c-.8,4.48-3.76,6.89-8.38,7h-136c-4.61-.15-7.17-2.62-8-7.06a3,3,0,0,0-.08-.85l.09-1.07c0-2.8.08-5.61,0-8.41,0-.88-.15-1.53-.2-2.51,0-.34.05-1.14.05-1.47,6.24-7.86,5.74-7.61,15.9-7.62,3.6,0,7.2-.07,10.93-.11.39-2.58.85-4.63-.5-6.89h-5.42c-4,0-8,.11-12,0-4.85-.18-8-2.79-8.77-6.94q0-22.23,0-44.46c0-18.15,0-36.3,0-54.45,0-1.71,0-1.5-.05-5.1m32,111.1v5.68a1.55,1.55,0,0,0-.4.3,1.12,1.12,0,0,0-.08.44,12.18,12.18,0,0,0,2.3.4c5,0,10,0,15,0,22,0,44,0,66,0,1.66,0,3.64.93,5-.89,1.55-2.61,1.55-3.51,0-6.11a10.9,10.9,0,0,0-3-.91q-41.49-.07-83,0a14,14,0,0,0-2.3.38ZM239.9,449c-3.55,1.05-4.63,3.89-5,7.12-.19,1.8,0,3.63-.07,5.43-.18,3.18,1.07,5.4,4.11,6.51,2.74.2-1.71,0,0,0,31.58.06,66.82.28,98.41.28,10.13,0,21.54-.13,31.68-.2,1.55,0,1.87,0,4.79-.12a5.18,5.18,0,0,0,4.39-2.77c3.17-5.95,1.94-11.89-3.48-16.3-1.45-1.71-3.42-.89-5.13-.9q-47.36-.07-94.72,0c-10.14,0-20.27,0-30.41,0C243,448.08,241.13,447.29,239.9,449Zm136.64-17.81a12.19,12.19,0,0,0,2.23-2.45c1.63-3.25,1.14-6.81,1.06-10.26-.06-2.77-.74-3.37-3.7-3.44-4.13-.1-8.27,0-12.31,0-.67.87-1.12,1.56-1.68,2.15a8.64,8.64,0,0,1-10.36,1.15,6.09,6.09,0,0,1-1.84-8.3c3.55-5.16,5.95-7.08,11.43-2,.93.85,2.17,1.91,3.29,1.93,4.91.09,9.86.53,15.21-.33,0-3.49,0-6.77,0-10.06a25.05,25.05,0,0,0-.18-3.47c-.06-.39-.61-.72-.94-1.07-.67-.32-1.35-.9-2-.9q-24.87-.07-49.74,0c-.67,0-1.34.59-2,.91-4.1,4.47-2.69,5.43-12.35,2.14a2.14,2.14,0,0,1-.3-.39c-.21-.62-.41-1.26-.61-1.89a7.7,7.7,0,0,1,3.79-9.62c2.82-1.57,5.94-.8,8.27,2.2.4.52.75,1.08,1.12,1.62A11.6,11.6,0,0,0,328,390q23.87.09,47.72,0a11.88,11.88,0,0,0,3.11-.93c.34-.7,1-1.4,1-2.11.1-3.66.09-7.33,0-11a6.43,6.43,0,0,0-.58-1.93H339.53a5.41,5.41,0,0,1-5.46-3.55c-1.36-3.21-3-6.32-4.05-9.62a8.85,8.85,0,0,0-4.94-5.8,7,7,0,0,1-2.2-11.46c1.62-1.75,3.64-3,6.21-2.38A7.83,7.83,0,0,1,334,352.33c-.36.73-.81,1.41-1.26,2.19,1.7,3.89,3.6,7.6,4.91,11.51.81,2.43,2.14,3.05,4.39,3,5.5-.06,11,0,16.49,0,5.84,0,11.67.06,17.5,0,3.16-.05,3.76-.67,3.81-3.87.08-5.17.09-10.33,0-15.5-.06-2.87-.71-3.49-3.6-3.57-4.17-.1-8.34.09-12.5-.07-2.82-.11-5.14.4-7.1,2.69-2.49,2.91-5.69,2-8.67.87s-3.07-3.95-3.12-6.7c-.07-3.43,2.37-5.14,4.75-6.46s4.53-.08,6.09,2c1.68,2.21,3.85,2.84,6.56,2.72,4.16-.18,8.33,0,12.5-.06,1.6,0,3.19-.14,5.11-.23,0-3.52.17-6.51,0-9.47-.36-5.14-2.78-7.29-7.91-7.29q-64,0-128,.05a52,52,0,0,0-7.41,1c-1.89,5.13-2.27,18.61-.83,23.77h19.24a46.61,46.61,0,0,1,3.43-3.75c2.89-2.54,5.1-2.59,7.93,0a13.6,13.6,0,0,1,3,3.93,5.05,5.05,0,0,1-1.11,6.35c-3.16,3.19-6.5,3.68-10.2,1.18-1.22-.82-2.42-2.26-3.68-2.31-6.27-.24-12.55-.11-18.73-.11-1,5.4-.89,11.17.25,14.93,6.89,0,13.87,0,20.85,0a6.8,6.8,0,0,0,1.94-.37c8.06-2.55,16.13-5.08,24.15-7.75a5.15,5.15,0,0,0,3-2.25c1.78-4.09,4.82-5.52,8.81-5.28,7.29,6.84,7.4,8.39,1,14.36a41.19,41.19,0,0,1-6.82-1.41,6.81,6.81,0,0,0-4.76-.15c-6.15,2-12.35,3.81-18.46,5.92A40.69,40.69,0,0,1,252.85,374c-4.83.12-9.66,0-14.5.06a22.81,22.81,0,0,0-3.45.56v14.27a1.3,1.3,0,0,0-.37.32.87.87,0,0,0,0,.46,9.12,9.12,0,0,0,1.85.34q23.34,0,46.69,0a8.82,8.82,0,0,0,2.62-.85q7.86-6,15.7-12.11a5.69,5.69,0,0,0,2.52-5.61c-.43-3,1.37-4.67,3.51-6.1,2.76-1.85,5.19-1.63,7.77.54a8.51,8.51,0,0,1,2.59,8.16c-.7,2.26-3.94,4.78-6.53,4.35-3.56-.6-5.95,1.11-8.33,3.17-2.88,2.5-5.62,5.16-8.61,7.52-2.71,2.14-5.67,4-8.52,5.92a8.36,8.36,0,0,0-2.54-.91q-23.49-.07-47,0a8.89,8.89,0,0,0-1.8.38l.48.76V410c6.83,0,13.09.08,19.35-.08a4.54,4.54,0,0,0,2.87-1.7,7.6,7.6,0,0,1,7.2-2.92c7.07,6.23,7.27,9.05,1.17,14.22-3.7-.05-7.3-.1-9.64-3.7-.38-.6-1.79-.7-2.74-.73-2.82-.09-5.65-.06-8.47,0-3.1,0-6.2.1-9.74.17,0,4.59,0,8.7,0,12.82,0,2.06,1.23,3,3.15,3.09a15.73,15.73,0,0,0,3.6.87q65.6.08,131.18,0A18,18,0,0,0,376.54,431.21Z" transform="translate(-230 -319.79)"/><path class="cls-1" d="M384,452c-3.9-6.15-9.44-8.72-16.7-8.05-3.45.31-6.95.05-10.39.05-1.43-2.22-.92-4.29-.59-6.69,1.59-.11,3-.27,4.48-.3,2.65,0,5.31-.05,8,0,5.92.11,11.48-.65,15.23-6Z" transform="translate(-230 -319.79)"/><path class="cls-1" d="M231,430c.76,4.15,3.91,6.76,8.76,6.94,4,.14,8,0,12,0h5.42c1.35,2.26.89,4.31.51,6.89-3.74,0-7.34.1-10.94.1-10.16,0-10.46.15-16.7,8V430Z" transform="translate(-230 -319.79)"/><path class="cls-1" d="M239,473l.05,1h-9v-8a5.32,5.32,0,0,0,1-.07C231.78,470.37,234.34,472.84,239,473Z" transform="translate(-230 -319.79)"/><path class="cls-1" d="M375,474a4.18,4.18,0,0,0,0-1c4.62-.15,8.3-4.48,9.1-9,.33.06-.42,2-.09,2v8Z" transform="translate(-230 -319.79)"/><path class="cls-1" d="M285.88,394.94c2.84-2,5.8-3.77,8.51-5.91,3-2.36,5.73-5,8.61-7.52,2.38-2.06,4.77-3.77,8.34-3.18,2.59.44,5.83-2.08,6.53-4.34a8.58,8.58,0,0,0-2.59-8.17c-2.58-2.16-5-2.38-7.78-.53-2.13,1.43-3.93,3.14-3.5,6.09a5.73,5.73,0,0,1-2.52,5.62l-15.7,12.11c-3.15,0-6.3-.09-9.45-.11L235,388.86V374.59a23.12,23.12,0,0,1,3.46-.56c4.83-.06,9.67.06,14.5-.06A40.62,40.62,0,0,0,265.56,372c6.11-2.11,12.31-4,18.47-5.92a6.83,6.83,0,0,1,4.75.14,40.59,40.59,0,0,0,6.82,1.41c6.46-6,6.34-7.51-.94-14.35-4-.24-7,1.19-8.81,5.28a5.22,5.22,0,0,1-3,2.25c-8,2.67-16.09,5.2-24.15,7.75a6.93,6.93,0,0,1-1.94.37c-7,0-14,0-20.85,0-1.14-3.76-1.25-9.53-.25-14.93,6.17,0,12.46-.13,18.73.11,1.25,0,2.46,1.49,3.67,2.31,3.7,2.5,7.05,2,10.21-1.19a5.06,5.06,0,0,0,1.11-6.34,13.64,13.64,0,0,0-3-3.93c-2.83-2.54-5-2.49-7.92.05a46.69,46.69,0,0,0-3.44,3.75H235.83c-1.45-5.16-1.06-18.65.82-23.78a53.75,53.75,0,0,1,7.41-1q64-.1,128-.05c5.12,0,7.54,2.15,7.91,7.29.21,3,0,5.95,0,9.47-1.91.09-3.51.22-5.11.23-4.16,0-8.33-.12-12.49.06-2.71.11-4.89-.51-6.57-2.72-1.56-2.05-3.8-3.24-6.09-2s-4.81,3-4.75,6.46c.06,2.75.06,5.5,3.12,6.7s6.19,2,8.68-.87c2-2.29,4.27-2.8,7.1-2.69,4.16.16,8.33,0,12.49.07,2.9.08,3.55.7,3.61,3.57.1,5.16.09,10.33,0,15.5-.05,3.2-.65,3.82-3.8,3.87-5.83.09-11.67,0-17.5,0-5.5,0-11,0-16.5,0-2.25,0-3.57-.59-4.38-3-1.31-3.91-3.22-7.62-4.91-11.51.45-.78.9-1.46,1.26-2.19a7.83,7.83,0,0,0-4.92-11.11c-2.58-.63-4.59.63-6.22,2.38A7,7,0,0,0,325.21,355a8.88,8.88,0,0,1,4.93,5.81c1.05,3.3,2.7,6.41,4.05,9.62a5.43,5.43,0,0,0,5.46,3.55h39.71a6.08,6.08,0,0,1,.58,1.92c.08,3.67.1,7.34,0,11,0,.71-.64,1.4-1,2.11H325c-.38-.54-.72-1.11-1.12-1.62-2.33-3-5.46-3.77-8.27-2.2a7.69,7.69,0,0,0-3.79,9.62c.2.63.39,1.26.61,1.89a1.51,1.51,0,0,0,.3.39c9.66,3.29,8.25,2.32,12.35-2.14l53.79,0c.32.36.88.68.94,1.08a23.59,23.59,0,0,1,.17,3.47c0,3.28,0,6.57,0,10.06-5.36.86-10.31.41-15.22.33-1.11,0-2.35-1.08-3.28-1.94-5.49-5-7.89-3.11-11.44,2.05a6.11,6.11,0,0,0,1.84,8.31,8.66,8.66,0,0,0,10.37-1.15c.56-.59,1-1.29,1.68-2.15,4,0,8.17-.07,12.31,0,2.95.07,3.63.67,3.7,3.44.08,3.45.57,7-1.06,10.26a12.25,12.25,0,0,1-2.24,2.45c-2.16-.06-4.33-.17-6.49-.17q-50.49,0-101,0c-10.33,0-20.66.06-31,.08-1.92-.14-3.14-1-3.15-3.08,0-4.12,0-8.23,0-12.82,3.54-.07,6.64-.14,9.75-.17,2.82,0,5.64-.07,8.46,0,1,0,2.36.13,2.75.73,2.34,3.6,5.93,3.65,9.64,3.7,6.09-5.17,5.89-8-1.18-14.22a7.58,7.58,0,0,0-7.19,2.92,4.59,4.59,0,0,1-2.87,1.7c-6.26.16-12.53.08-19.36.08V395.16c1.83-.05,3.65-.15,5.48-.15ZM339.93,405c-1.57.54-4,.64-5.08,1.91-2.66,3.21-5.93,3.18-9.48,3.1-4.16-.09-8.33,0-12.49,0H287.12c-3.93-4.62-6.22-5.42-10.38-3.78-2.28.89-4,4.4-3.72,7.59s2.36,5.3,5.76,6c3.23.67,6-.87,8.34-4.81,14,0,28.18,0,42.34,0,.92,0,2.29.25,2.69.88,2.52,3.89,6.32,3.42,9.88,3.47C348.06,413.5,347.58,410.09,339.93,405Z" transform="translate(-230 -319.79)"/><path class="cls-1" d="M239.09,468.05c-3-1.12-4.28-3.33-4.11-6.51.1-1.8-.11-3.64.07-5.43.35-3.23,1.42-6.07,5-7.12q23,0,46,0l88.91-.06c5.41,4.41,6.64,10.35,3.48,16.3a5,5,0,0,1-4.22,2.79C329.18,468.05,284.05,468,239.09,468.05Zm3-7c.67.32,1.33.93,2,.93q29.44.07,58.9,0c.67,0,1.33-.61,2-.94,2.68-1.08,2.68-1.88,0-4a11,11,0,0,0-3.08-.94q-29.11-.09-58.23,0a9,9,0,0,0-2.62.88C241.21,458.34,240.37,460,242.06,461ZM357,458.83c0,4.79,2.29,7.06,7.32,7.16,3.69.08,7.25-3.27,7.17-6.75-.09-3.8-3.91-8.08-7.32-8.21C360.48,450.9,357,454.66,357,458.83Z" transform="translate(-230 -319.79)"/><path class="cls-1" d="M350.88,436.94c1.54,2.61,1.54,3.51,0,6.12L269,443c-2,0-4-.1-6-.15v-5.68c2-.05,4-.15,6-.15Z" transform="translate(-230 -319.79)"/><path d="M339.93,405c7.65,5.08,8.13,8.49,2.1,14.38-3.56-.05-7.36.42-9.88-3.47-.4-.63-1.77-.87-2.69-.88-14.16-.05-28.31,0-42.34,0-2.36,3.94-5.11,5.48-8.34,4.81-3.4-.71-5.49-2.89-5.76-6s1.44-6.7,3.72-7.59c4.16-1.64,6.45-.84,10.38,3.78h25.76c4.16,0,8.33-.07,12.49,0,3.55.08,6.82.11,9.48-3.1C335.9,405.65,338.36,405.55,339.93,405Z" transform="translate(-230 -319.79)"/><path d="M305,457c2.67,2.13,2.67,2.93,0,4h-62.9c-1.69-1-.85-2.68-1-4.08Z" transform="translate(-230 -319.79)"/><path d="M357,458.83c0-4.17,3.48-7.93,7.17-7.8,3.41.13,7.23,4.41,7.32,8.21.08,3.48-3.48,6.83-7.17,6.75C359.29,465.89,357,463.62,357,458.83Z" transform="translate(-230 -319.79)"/><path d="M236,320.56" transform="translate(-230 -319.79)"/></svg>