<svg xmlns="http://www.w3.org/2000/svg" viewBox="0 0 451.55 155.78"><defs><style>.cls-1{font-size:141px;stroke:#000;stroke-miterlimit:10;stroke-width:2px;font-family:Gilroy-Light, Gilroy;letter-spacing:-0.02em;}.cls-2{letter-spacing:-0.02em;}</style></defs><title>oslo-named</title><g id="Layer_2" data-name="Layer 2"><g id="Layer_1-2" data-name="Layer 1"><path d="M.29,146.34v-13c3.15-6.25,8.25-8.66,15.12-8.06,3.14.28,6.33-.11,9.49.09,2.87.18,3.26-1.3,3.23-3.64s-.24-4-3.14-3.88c-4.17.11-8.35-.24-12.49.08-5.62.42-9.71-1.49-12.21-6.6,0-36-.66-72,0-107.95h0C.35,1.07.62.27,3.36.28c49.61.11,95.5,0,145.26,0,.46,0,5.69-.34,5.69,4.12,0-.64,0,70.57,0,107a12.51,12.51,0,0,1-3.68,4.17c-2.69,1.9-6,2.51-9.72,2.39-4-.13-8,0-11.93,0-3.25-.05-2.54,2.26-2.67,4.15-.15,2.1.19,3.47,2.88,3.36,4.47-.19,8.95-.09,13.43,0,4.93.08,8.57,2.2,10.54,6.87a24.07,24.07,0,0,0,1.15,2.12v11c-1.6,5.61-5.71,8.46-11,10-44,0-88,1-132,0C2.87,155.16,1.21,152.47.29,146.34Zm77.19-141H49c-12.5,0-25,0-37.5,0-4.8,0-6,1.15-6.17,5.77-.13,5.16.06,10.33-.07,15.5-.07,2.43.92,3.23,3.23,3.19,4.33-.09,8.66-.06,13,0,2.57,0,4.85,0,6.44-2.71.63-1.06,2.45-1.72,3.83-2,3.67-.67,6.56,1.18,7.83,4.65a7.18,7.18,0,0,1-2.8,8.33,6.84,6.84,0,0,1-9-1.13c-1.28-1.36-2.25-2.62-4.46-2.53-5,.19-10,.12-15,0-2.07,0-3.09.64-3,2.86.1,2.49,0,5,0,7.49,0,6.07-.5,5.45,5.25,5.49,3.33,0,6.67.1,10,0,3.14-.12,6.38,0,9.36-.82,7.55-2,15-4.55,22.46-6.79,2-.6,3.33-1.34,4.25-3.57a7,7,0,0,1,10-3.59,7.15,7.15,0,0,1,3,9.49c-2,3.88-6,5.14-10.11,2.64a5.89,5.89,0,0,0-5.56-.46c-7,2.28-13.93,4.52-21,6.53a37.83,37.83,0,0,1-8.78,1.39c-5.16.22-10.34.18-15.5,0-2.67-.08-3.52,1-3.36,3.5s0,5,0,7.5c.05,4.59.06,4.65,4.71,4.66,13.16,0,26.33-.15,39.5.1,4.46.08,8-1,11.26-4.06a99.82,99.82,0,0,1,9.34-7.53c2.6-1.94,4.75-3.69,4.24-7.63-.38-2.81,2.29-5.33,5-6.06a7.09,7.09,0,0,1,7.53,2.71,6.77,6.77,0,0,1,.63,7.52c-1.39,2.63-3.67,4.26-6.48,3.7-3.1-.61-5,.65-7.1,2.46-3.78,3.27-7.82,6.24-11.51,9.61a14.45,14.45,0,0,1-10.77,4c-13-.26-26-.1-39-.1-1.5,0-3,.09-4.5,0-2.17-.13-3,.84-2.91,2.95.09,3.33.11,6.67,0,10-.08,2.13.69,3,2.87,2.91,4.67-.11,9.34-.08,14,0,2.23,0,3.89-.29,5.54-2.29a6.79,6.79,0,0,1,10.81.37,7.15,7.15,0,0,1-1,9.88c-2.76,2.38-6.54,2.23-9.47-.53-1.31-1.23-2.15-2.75-4.43-2.66-5.16.2-10.33.09-15.5,0-1.77,0-2.84.45-2.78,2.51.08,3.16,0,6.33,0,9.5,0,2.86,1.76,4.23,4.22,4.78a20.83,20.83,0,0,0,4.48.19q63.49,0,127,0a35.51,35.51,0,0,0,4-.08c2.64-.3,4.34-1.66,4.39-4.5,0-3.33,0-6.66,0-10,0-1.69-.7-2.4-2.38-2.38-3.33,0-6.67,0-10,0-2.09-.05-3.76.23-5.06,2.29a5.92,5.92,0,0,1-6.14,2.51,7.42,7.42,0,0,1-6.33-6.2,7.58,7.58,0,0,1,3.59-7.2,6.83,6.83,0,0,1,8.68,1.32c1.16,1.17,1.89,2.58,4,2.49,3.66-.18,7.33-.11,11,0,1.86,0,2.76-.59,2.69-2.57-.08-2.49,0-5,0-7.5,0-6.27.53-5.75-5.54-5.76-14.5,0-29,0-43.5,0-2.75,0-4.9.26-6.9,2.76-2.43,3-7.08,2.69-9.8,0a7.08,7.08,0,0,1,0-10.28c2.67-2.63,7.37-2.93,9.82.08,1.93,2.37,4,2.49,6.56,2.48q20.75,0,41.5,0c1.66,0,3.34-.09,5,0,2.22.14,2.93-.88,2.86-3-.11-3.33-.1-6.67,0-10,0-2-.87-2.7-2.71-2.65-1.17,0-2.33,0-3.5,0-10.83,0-21.67-.09-32.5,0-3.26,0-5.3-.92-6.42-4.16-1.19-3.45-2.84-6.74-4.26-10.12C99.1,38.5,98.3,36.74,95.43,36c-3.66-.9-5.21-5.45-3.84-9a7.11,7.11,0,0,1,9-4.15c3.81,1.41,6.15,5.83,4.1,9.3-1.79,3-1,5.24.24,7.84,1.17,2.4,2.26,4.83,3.2,7.32a3.55,3.55,0,0,0,3.8,2.52q17.25,0,34.5,0c2.09,0,3-.78,2.95-2.93-.08-5.5-.1-11,0-16.5,0-2.33-.72-3.28-3.14-3.22-4.49.13-9,.07-13.49,0-2.21,0-3.94.21-5.62,2.24a6.9,6.9,0,0,1-10.21.22,7.36,7.36,0,0,1-.08-10,6.53,6.53,0,0,1,10.11.22,6.53,6.53,0,0,0,6,2.5c2.16-.13,4.34.06,6.5-.05,3.27-.16,6.53-.45,9.79-.69.12-3.15.35-6.29.33-9.44,0-5.94-1-6.83-7.11-6.83ZM77.31,130.2q-32.2,0-64.4,0c-5.56,0-7.47,2-7.63,7.46,0,1,0,2,0,3,0,7.35,1.46,8.83,8.67,8.83H78.35q31.7,0,63.4,0c5.56,0,7.5-2,7.64-7.44,0-1,0-2,0-3,0-7.28-1.56-8.86-8.69-8.86Zm0-5c13.48,0,27,0,40.44,0,3.72,0,3.88-.4,4-4,.1-2.83-1-3.73-3.79-3.73q-40.68.12-81.37,0c-2.83,0-3.86,1-3.76,3.76.13,3.52.3,3.9,4,3.92C50.39,125.2,63.87,125.17,77.35,125.17Z"/><path d="M79.84,96.19c-6.33,0-12.65,0-19,0-2.2,0-3.88.19-5.49,2.37-2.51,3.42-7.14,3.34-10.11.5a7.27,7.27,0,0,1,0-10.3c3-3,7.36-3.1,10.11.31,1.65,2,3.32,2.31,5.54,2.3q18.74-.06,37.45,0c2.25,0,3.93-.32,5.58-2.29a6.76,6.76,0,0,1,10.17-.41,7.09,7.09,0,0,1,0,10.27c-2.91,2.9-7.08,2.94-10.11-.51-1.69-1.93-3.39-2.28-5.63-2.26C92.15,96.24,86,96.19,79.84,96.19Z"/><path d="M44.12,142.42c-9.64,0-19.27,0-28.91,0-1.9,0-4.61.54-4.51-2.39.08-2.64,2.61-2.51,4.63-2.51l56.82,0c.5,0,1,0,1.5,0,1.8.12,3.47.62,3.28,2.82-.18,1.92-1.83,2.07-3.4,2.06Z"/><path d="M141.41,139.9a7.37,7.37,0,0,1-7.14,7.38,7.44,7.44,0,1,1-.4-14.88A7.4,7.4,0,0,1,141.41,139.9Z"/><text class="cls-1" transform="translate(164.33 120.85) scale(1.02 1)">Os<tspan class="cls-2" x="172.58" y="0">lo</tspan></text></g></g></svg>