<svg id="Layer_1" data-name="Layer 1" xmlns="http://www.w3.org/2000/svg" viewBox="0 0 154.33 155.53"><title>oslologo_from_black</title><path d="M230,465V452c3.14-6.25,8.25-8.66,15.11-8.06,3.15.28,6.34-.11,9.49.09,2.88.18,3.27-1.3,3.23-3.64s-.23-3.95-3.14-3.87c-4.16.1-8.35-.25-12.49.07-5.62.43-9.71-1.49-12.2-6.6,0-36-.66-72,0-108h0c.06-2.31.32-3.11,3.06-3.1,49.61.11,95.5,0,145.27,0,.46,0,5.69-.34,5.69,4.12,0-.64,0,70.57,0,107a12.56,12.56,0,0,1-3.69,4.17c-2.68,1.9-6,2.51-9.71,2.39-4-.13-8,0-11.94,0-3.25,0-2.54,2.26-2.67,4.15-.14,2.1.19,3.47,2.88,3.36,4.47-.19,9-.09,13.43,0,4.93.07,8.58,2.19,10.55,6.86A21.71,21.71,0,0,0,384,453v11c-1.6,5.6-5.71,8.45-11,10-44,0-88,1-132,0C232.53,473.81,230.88,471.13,230,465Zm77.18-141h-28.5c-12.5,0-25,0-37.5,0-4.8,0-6,1.15-6.16,5.77-.14,5.16.06,10.33-.08,15.5-.06,2.43.92,3.24,3.23,3.19,4.33-.09,8.67-.06,13,0,2.56,0,4.85,0,6.44-2.71.63-1.06,2.44-1.72,3.82-2,3.68-.67,6.56,1.18,7.84,4.66a7.17,7.17,0,0,1-2.8,8.32,6.86,6.86,0,0,1-9.05-1.13c-1.27-1.36-2.25-2.62-4.45-2.53-5,.19-10,.12-15,0-2.08,0-3.1.64-3,2.86.1,2.49,0,5,0,7.49,0,6.07-.51,5.45,5.24,5.49,3.34,0,6.67.1,10,0,3.13-.12,6.38,0,9.36-.83,7.55-2,15-4.55,22.45-6.79,2-.6,3.34-1.34,4.25-3.57a7,7,0,0,1,10-3.59,7.16,7.16,0,0,1,3,9.49c-2,3.88-6,5.14-10.12,2.64a5.89,5.89,0,0,0-5.56-.46c-6.95,2.28-13.93,4.52-21,6.53a37.91,37.91,0,0,1-8.79,1.39c-5.16.23-10.33.18-15.49,0-2.68-.08-3.52,1-3.37,3.5s0,5,0,7.5c0,4.6.05,4.65,4.7,4.66,13.17,0,26.34-.15,39.5.1,4.46.08,8-1,11.27-4.06a99.68,99.68,0,0,1,9.33-7.53c2.61-1.94,4.76-3.69,4.24-7.63-.37-2.81,2.3-5.33,5-6.06a7.11,7.11,0,0,1,7.54,2.71,6.75,6.75,0,0,1,.62,7.52c-1.38,2.63-3.66,4.26-6.48,3.7-3.09-.61-5,.65-7.09,2.46-3.78,3.27-7.83,6.24-11.51,9.61a14.42,14.42,0,0,1-10.77,4c-13-.26-26-.1-39-.1-1.5,0-3,.09-4.5,0-2.17-.13-3,.85-2.9,2.95.09,3.33.11,6.67,0,10-.07,2.13.69,3,2.88,2.91,4.66-.11,9.33-.08,14,0,2.23,0,3.89-.29,5.54-2.29a6.79,6.79,0,0,1,10.81.37,7.17,7.17,0,0,1-1,9.89c-2.76,2.37-6.55,2.22-9.48-.54-1.3-1.22-2.15-2.75-4.42-2.66-5.16.2-10.33.09-15.5,0-1.78,0-2.85.45-2.79,2.51.09,3.16,0,6.33,0,9.5,0,2.86,1.76,4.23,4.21,4.78a20.88,20.88,0,0,0,4.48.19h127a35.33,35.33,0,0,0,4-.08c2.65-.3,4.35-1.66,4.39-4.5.06-3.33,0-6.66,0-10,0-1.69-.7-2.4-2.38-2.38-3.33,0-6.66.05-10,0-2.1-.05-3.76.23-5.07,2.29a5.88,5.88,0,0,1-6.13,2.51,7.44,7.44,0,0,1-6.34-6.2,7.61,7.61,0,0,1,3.6-7.2,6.84,6.84,0,0,1,8.68,1.32c1.15,1.17,1.89,2.58,4,2.49,3.66-.18,7.33-.11,11,0,1.86,0,2.77-.59,2.7-2.57-.09-2.49,0-5,0-7.49,0-6.28.53-5.76-5.55-5.77-14.5,0-29,0-43.5,0-2.74,0-4.9.26-6.89,2.76-2.43,3-7.08,2.7-9.81,0a7.08,7.08,0,0,1,0-10.28c2.67-2.63,7.37-2.92,9.82.08,1.93,2.37,4,2.49,6.56,2.48,13.84,0,27.67,0,41.5,0,1.67,0,3.34-.09,5,0,2.21.14,2.92-.87,2.85-3-.11-3.33-.09-6.67,0-10,.05-2-.86-2.7-2.7-2.65-1.17,0-2.34,0-3.5,0-10.84,0-21.67-.09-32.5.05-3.27,0-5.3-.92-6.42-4.16-1.19-3.45-2.84-6.74-4.27-10.12-.91-2.15-1.7-3.9-4.57-4.61-3.66-.9-5.21-5.45-3.84-9.05a7.1,7.1,0,0,1,9-4.15c3.82,1.41,6.15,5.83,4.1,9.3-1.78,3-1,5.24.25,7.84,1.16,2.4,2.26,4.83,3.19,7.32a3.56,3.56,0,0,0,3.81,2.52q17.25,0,34.5,0c2.08,0,3-.79,2.95-2.94-.08-5.5-.1-11,0-16.5.05-2.33-.72-3.28-3.13-3.21-4.5.12-9,.06-13.5,0-2.2,0-3.93.21-5.62,2.24a6.89,6.89,0,0,1-10.2.22,7.35,7.35,0,0,1-.08-10,6.53,6.53,0,0,1,10.11.22,6.52,6.52,0,0,0,6,2.5c2.16-.13,4.33.06,6.5,0,3.26-.16,6.52-.45,9.79-.69.11-3.14.34-6.29.32-9.44,0-5.94-1-6.83-7.1-6.83ZM307,448.85q-32.21,0-64.4,0c-5.55,0-7.47,2-7.63,7.47,0,1,0,2,0,3,0,7.35,1.45,8.83,8.67,8.83q32.2,0,64.4,0,31.71,0,63.4,0c5.57,0,7.51-2,7.65-7.44,0-1,0-2,0-3,0-7.27-1.55-8.86-8.69-8.86Q338.68,448.83,307,448.85Zm0-5c13.48,0,27,0,40.43,0,3.73,0,3.88-.4,4-3.95.1-2.83-1-3.73-3.79-3.73q-40.69.12-81.38,0c-2.82,0-3.85,1-3.75,3.76.13,3.52.29,3.9,4,3.92C280.06,443.85,293.54,443.82,307,443.82Z" transform="translate(-229.67 -318.9)"/><path d="M309.5,414.85c-6.32,0-12.65,0-19,0-2.21,0-3.89.19-5.49,2.37-2.52,3.42-7.15,3.34-10.11.5a7.28,7.28,0,0,1-.05-10.3c3-2.95,7.37-3.09,10.11.31,1.65,2.05,3.33,2.31,5.55,2.3q18.72-.06,37.45,0c2.25,0,3.93-.32,5.58-2.29a6.76,6.76,0,0,1,10.17-.41,7.09,7.09,0,0,1,0,10.28c-2.9,2.89-7.08,2.93-10.1-.52-1.69-1.93-3.39-2.28-5.63-2.26C321.82,414.89,315.66,414.85,309.5,414.85Z" transform="translate(-229.67 -318.9)"/><path d="M273.78,461.07c-9.63,0-19.27,0-28.9,0-1.9,0-4.61.54-4.52-2.39.08-2.64,2.62-2.5,4.64-2.5h56.82c.5,0,1,0,1.49,0,1.8.12,3.48.62,3.28,2.82-.17,1.92-1.82,2.07-3.4,2.07Z" transform="translate(-229.67 -318.9)"/><path d="M371.07,458.55a7.36,7.36,0,0,1-7.14,7.38,7.44,7.44,0,1,1-.4-14.88A7.4,7.4,0,0,1,371.07,458.55Z" transform="translate(-229.67 -318.9)"/></svg>