<svg xmlns="http://www.w3.org/2000/svg" viewBox="0 0 285.99 107.87"><defs><style>.cls-1{fill:#fff;}.cls-2{fill:none;stroke:#000;stroke-miterlimit:10;stroke-width:1.75px;}.cls-3{font-size:60px;font-family:Gilroy-Light, Gilroy;}.cls-4{letter-spacing:-0.02em;}.cls-5{letter-spacing:-0.02em;}.cls-6{letter-spacing:-0.01em;}.cls-7{letter-spacing:-0.01em;}.cls-8{letter-spacing:-0.02em;}.cls-9{letter-spacing:-0.02em;}</style></defs><title>Asset 6</title><g id="Layer_2" data-name="Layer 2"><g id="Layer_1-2" data-name="Layer 1"><path class="cls-1" d="M71,2.33C71.05.52,70.72,0,68.78,0,45.85.08,22.93.05,0,.05V107.87H71V51.76C71,35.28,71,18.8,71,2.33Zm-65,56.85a5.2,5.2,0,0,1,1.24-.8c.8.41,1.55.74,2.26,1.16q9.85,5.85,19.68,11.75a15.92,15.92,0,0,1,1.65,1.12c.68.55,1.23,1.26.76,2.14a1.65,1.65,0,0,1-2.49.73c-1.46-.81-2.91-1.61-4.34-2.47Q16.7,67.95,8.6,63A7.18,7.18,0,0,1,5.85,61,1.36,1.36,0,0,1,6.06,59.18Zm16.8,18.18c.1,1.3-2.87,5.85-3.94,6s-5.46-2.66-5.61-3.64c-.18-1.18,3.24-6.35,4.23-6.41S22.79,76.39,22.86,77.36ZM8.48,68.22c1.73.24,5.22,3.1,5.08,4.16-.23,1.75-3.38,5.59-4.48,5.47-1.79-.19-5.11-3-5-4.2C4.33,71.67,7.24,68.05,8.48,68.22ZM58.17,95.07c3.93,1.09,4.72,1.92,4.75,5.82,0,7,.63,6.24-6,6.25q-25,0-49.95,0c-1.33,0-2.66,0-4-.06a1.93,1.93,0,0,1-1.9-1.28c-2.35-6,1.05-11.36,7.62-11.45,7.66-.11,15.29-.61,22.94-1,11.81-.65,16.24-7.77,18.39-15.9,2.21-8.39-.42-15.66-5.24-22.51-1.63-2.3-4-2.18-6.12-2.75-1.42-.37-1.89,1.16-2.44,2.1-1.78,3-3.41,6.09-5.19,9.09-1.94,3.26-3.67,3.79-7,2.15-1.93-.95-3.8-2-5.67-3.12-3.87-2.24-4.48-4.16-2.27-8.17,4.24-7.71,8.61-15.36,12.93-23q3.54-6.3,7.08-12.6C37,17,37.9,15,40,15.1c2.8.11,3.81-1.65,4.67-3.63,1.18-2.69,3.59-4.79,3.58-8.09C48.2,1.82,49.45,1,51,1.79c2.65,1.37,5.27,2.82,7.8,4.43,1.56,1,1.84,2.55,0,3.52-3.88,2.11-4.28,6.52-6.63,9.61a1.47,1.47,0,0,0,0,1.38c2,2.77.4,5-.94,7.33-1.56,2.73-2.93,5.55-4.38,8.34,2.71,2.75,3.6,6.66,6.2,9.54a38,38,0,0,1,5.57,43.18c-.8,1.62-1.71,3.19-2.89,5.38C56.9,94.76,57.54,94.89,58.17,95.07Z"/><path d="M55.41,95c1.3.08,2.16,0,2.76.08,4,.67,4.72,1.92,4.75,5.82,0,7,.63,6.24-6,6.25q-25,0-49.95,0c-1.33,0-2.66,0-4-.07a1.93,1.93,0,0,1-1.9-1.28c-2.35-6,1.05-11.36,7.62-11.45,7.66-.11,15.29-.61,22.94-1C43.42,92.69,47.85,85.57,50,77.44c2.21-8.39-.42-15.66-5.24-22.51-1.63-2.3-4-2.18-6.12-2.75-1.42-.37-1.89,1.16-2.44,2.1-1.78,3-3.41,6.09-5.19,9.09-1.94,3.26-3.67,3.79-7,2.16-1.93-1-3.8-2-5.67-3.13-3.87-2.24-4.48-4.16-2.27-8.17,4.24-7.71,8.61-15.36,12.93-23q3.54-6.3,7.08-12.59C37,17,37.9,15.05,40,15.13c2.8.11,3.62-1.74,4.67-3.63,1.46-2.63,3.43-4.79,3.58-8.09C48.28,1.66,49.45,1,51,1.82c2.65,1.37,5.27,2.83,7.8,4.43,1.56,1,1.73,2.37,0,3.52-3.64,2.51-4.77,6.18-6.63,9.61a1.63,1.63,0,0,0,0,1.38c2,2.77.4,5-.94,7.33-1.56,2.73-2.93,5.56-4.38,8.34,2.71,2.75,3.6,6.66,6.2,9.54a38,38,0,0,1,5.57,43.18C57.88,90.77,56.58,92.84,55.41,95ZM50.75,47.11c-.53.8-.84,1.35-1.23,1.83-2.88,3.53-2.9,3.54-.63,7.2,4.53,7.3,6,14.94,3.37,23.37C49.09,89.87,42.5,95.38,31.66,96c-7.31.4-14.63.68-21.95,1a15.31,15.31,0,0,0-3.46.42c-2.18.63-3.19,2.6-3,5.1s2.15,2.13,3.73,2.15c4.83,0,9.66,0,14.49,0,12,0,24,0,36,0,2.35,0,3.32-.88,3.23-3.25-.11-2.93-1-3.6-3.17-3.71-1-.05-2.07-.07-3.06-.08-2.55,0-3.1-.84-1.94-3,.48-.87,1.13-1.64,1.67-2.48,5.25-8.14,7.56-16.94,5.87-26.6A33.91,33.91,0,0,0,50.75,47.11ZM26.5,64a2,2,0,0,0,2-1.13c2.19-3.72,4.35-7.46,6.57-11.16.73-1.2.32-2.15-.31-3.21a8.47,8.47,0,0,1-1.24-5.24c.38-4.21,3-7.1,7.83-7.68a5.55,5.55,0,0,0,5.09-3.78c.26-.61.67-1.15,1-1.75,1.11-2.36,3.93-4.55,3.17-7s-4.2-2.9-6.46-4.22c-3.64-2.11-3.77-2.07-6,1.78Q29,36.4,20,52.21c-3.9,6.83-5,5.56,2.92,10C24.21,63,25.57,63.54,26.5,64ZM41.94,37.88a6.11,6.11,0,0,0-6.1,6.38,6,6,0,0,0,6.4,6,6.08,6.08,0,0,0,5.85-6.11A6,6,0,0,0,41.94,37.88ZM51.4,7a1.92,1.92,0,0,0-1.77,1.22c-1,1.79-2.14,3.66-3.32,5.57-.93,1.49-1,2.52.81,3.6s3,.77,3.91-1.11,2-3.46,2.88-5.24C55,9,53.93,7.27,51.4,7Z"/><path d="M6.52,58.58c.81.39,1.57.71,2.28,1.11q10,5.7,19.89,11.42a16.49,16.49,0,0,1,1.67,1.09c.68.54,1.24,1.24.79,2.13a1.66,1.66,0,0,1-2.48.77c-1.47-.79-2.94-1.56-4.38-2.39Q16.09,68,7.9,63.21a7.21,7.21,0,0,1-2.79-2,1.38,1.38,0,0,1,.19-1.81A5.75,5.75,0,0,1,6.52,58.58Z"/><path class="cls-2" d="M13.56,71.71c-.23,1.75-3.38,5.59-4.48,5.47C7.29,77,4,74.19,4.1,73c.23-2,3.14-5.6,4.38-5.43C10.21,67.8,13.7,70.66,13.56,71.71Z"/><path class="cls-2" d="M23.35,76.9c.23,1.28-2.27,6.1-3.31,6.39s-5.71-2.09-6-3.06c-.29-1.15,2.58-6.64,3.56-6.8S23.18,75.94,23.35,76.9Z"/><path class="cls-1" d="M50.75,47.11a33.91,33.91,0,0,1,9.34,18.52c1.69,9.66-.62,18.46-5.87,26.6-.54.84-1.19,1.61-1.67,2.48-1.16,2.13-.61,3,1.94,3,1,0,2-.26,3-.2,2.53.14,3.14,1.06,3.25,4,.09,2.37-.88,3.26-3.23,3.25-12-.06-24,0-36,0-4.83,0-9.66,0-14.49,0-1.58,0-3.51.41-3.73-2.15s.79-4.47,3-5.1A15.31,15.31,0,0,1,9.71,97c7.32-.36,14.64-.64,22-1,10.84-.59,17.43-6.1,20.6-16.46,2.58-8.43,1.16-16.07-3.37-23.37-2.27-3.66-2.25-3.67.63-7.2C49.91,48.46,50.22,47.91,50.75,47.11Z"/><path class="cls-1" d="M26.5,64c-.93-.47-2.29-1.06-3.57-1.79C15,57.77,16.11,59,20,52.21q9-15.81,18.1-31.56c2.22-3.85,2.35-3.89,6-1.78,2.26,1.32,5.71,1.85,6.46,4.22s-2.06,4.61-3.17,7c-.29.6-.7,1.14-1,1.75a5.55,5.55,0,0,1-5.09,3.78c-4.86.58-7.45,3.47-7.83,7.68a8.47,8.47,0,0,0,1.24,5.24c.63,1.06,1,2,.31,3.21-2.22,3.7-4.38,7.44-6.57,11.16A2,2,0,0,1,26.5,64Z"/><path class="cls-1" d="M41.94,37.88a6,6,0,0,1,6.15,6.27,6.08,6.08,0,0,1-5.85,6.11,6,6,0,0,1-6.4-6A6.11,6.11,0,0,1,41.94,37.88Z"/><path class="cls-1" d="M51.4,7c2.53.26,3.56,1.94,2.51,4-.89,1.78-2,3.46-2.88,5.24s-2,2.23-3.91,1.11-1.74-2.11-.81-3.6c1.14-1.84,2.24-3.7,3.32-5.57C50.07,7.46,50.55,6.85,51.4,7Z"/><text class="cls-3" transform="translate(68.37 75.7)"><tspan class="cls-4">A</tspan><tspan class="cls-5" x="36.76" y="0">r</tspan><tspan class="cls-6" x="54.4" y="0">n</tspan><tspan class="cls-7" x="87.52" y="0">h</tspan><tspan class="cls-8" x="120.74" y="0">e</tspan><tspan class="cls-9" x="155.1" y="0">i</tspan><tspan x="166.2" y="0">m</tspan></text></g></g></svg>